0
SECTION
2
HEADER
9
$ANGDIR
70
1
9
$AUNITS
70
0
9
$PROJECTNAME
1
untitled
9
$TDCREATE
40
2458370.60437902
9
$INSUNITS
70
4
0
ENDSEC
0
SECTION
2
ENTITIES
0
POLYLINE
66
1
8
1_copper
10
0.0
20
0.0
30
0.0
70
1
0
VERTEX
8
0
10
20.63514375
20
7.8559375000000005
30
0
42
0.9063472543261978
0
VERTEX
8
0
10
20.560634375
20
9.3726
30
0
0
VERTEX
8
0
10
18.961765625
20
9.3726
30
0
42
0.9520795017710562
0
VERTEX
8
0
10
18.961765625
20
7.8486
30
0
0
VERTEX
8
0
10
20.560634375
20
7.8486
30
0
0
SEQEND
0
POLYLINE
66
1
8
1_copper
10
0.0
20
0.0
30
0.0
70
1
0
VERTEX
8
0
10
20.63514375
20
3.3347375
30
0
42
0.9063472543261978
0
VERTEX
8
0
10
20.560634375
20
4.8514
30
0
0
VERTEX
8
0
10
18.961765625
20
4.8514
30
0
42
0.9520795017710562
0
VERTEX
8
0
10
18.961765625
20
3.3274000000000004
30
0
0
VERTEX
8
0
10
20.560634375
20
3.3274000000000004
30
0
0
SEQEND
0
POLYLINE
66
1
8
16_copper
10
0.0
20
0.0
30
0.0
70
1
0
VERTEX
8
0
10
20.63514375
20
7.8559375000000005
30
0
42
0.9063472543261978
0
VERTEX
8
0
10
20.560634375
20
9.3726
30
0
0
VERTEX
8
0
10
18.961765625
20
9.3726
30
0
42
0.9520795017710562
0
VERTEX
8
0
10
18.961765625
20
7.8486
30
0
0
VERTEX
8
0
10
20.560634375
20
7.8486
30
0
0
SEQEND
0
POLYLINE
66
1
8
16_copper
10
0.0
20
0.0
30
0.0
70
1
0
VERTEX
8
0
10
20.63514375
20
3.3347375
30
0
42
0.9063472543261978
0
VERTEX
8
0
10
20.560634375
20
4.8514
30
0
0
VERTEX
8
0
10
18.961765625
20
4.8514
30
0
42
0.9520795017710562
0
VERTEX
8
0
10
18.961765625
20
3.3274000000000004
30
0
0
VERTEX
8
0
10
20.560634375
20
3.3274000000000004
30
0
0
SEQEND
0
POLYLINE
66
1
8
1_copper
10
0.0
20
0.0
30
0.0
70
1
0
VERTEX
8
0
10
28.6004
20
7.34645625
30
0
0
VERTEX
8
0
10
28.6004
20
7.89354375
30
0
0
VERTEX
8
0
10
28.213543750000003
20
8.2804
30
0
0
VERTEX
8
0
10
27.666456250000003
20
8.2804
30
0
0
VERTEX
8
0
10
27.279600000000002
20
7.89354375
30
0
0
VERTEX
8
0
10
27.279600000000002
20
7.34645625
30
0
0
VERTEX
8
0
10
27.666456250000003
20
6.9596
30
0
0
VERTEX
8
0
10
28.213543750000003
20
6.9596
30
0
0
SEQEND
0
POLYLINE
66
1
8
1_copper
10
0.0
20
0.0
30
0.0
70
1
0
VERTEX
8
0
10
7.774975
20
3.102859375
30
0
42
0.924391256503771
0
VERTEX
8
0
10
7.67509375
20
5.6450000000000005
30
0
0
VERTEX
8
0
10
5.02490625
20
5.6450000000000005
30
0
42
0.9614823079240062
0
VERTEX
8
0
10
5.02490625
20
3.095
30
0
0
VERTEX
8
0
10
7.67509375
20
3.095
30
0
0
SEQEND
0
POLYLINE
66
1
8
16_copper
10
0.0
20
0.0
30
0.0
70
1
0
VERTEX
8
0
10
15.758103125
20
2.0836875
30
0
42
0.18597604843350257
0
VERTEX
8
0
10
15.891684375
20
2.142315625
30
0
0
VERTEX
8
0
10
16.780684375
20
3.031315625
30
0
42
0.198912367379658
0
VERTEX
8
0
10
16.8402
20
3.1750000000000003
30
0
0
VERTEX
8
0
10
16.8402
20
5.249831250000001
30
0
0
VERTEX
8
0
10
17.48316875
20
5.8928
30
0
0
VERTEX
8
0
10
21.463
20
5.8928
30
0
42
0.198912367379658
0
VERTEX
8
0
10
21.606684375
20
5.952315625000001
30
0
0
VERTEX
8
0
10
23.071168750000002
20
7.4168
30
0
0
VERTEX
8
0
10
27.279600000000002
20
7.4168
30
0
0
VERTEX
8
0
10
27.279600000000002
20
7.34645625
30
0
0
VERTEX
8
0
10
27.666456250000003
20
6.9596
30
0
0
VERTEX
8
0
10
28.213543750000003
20
6.9596
30
0
0
VERTEX
8
0
10
28.6004
20
7.34645625
30
0
0
VERTEX
8
0
10
28.6004
20
7.89354375
30
0
0
VERTEX
8
0
10
28.213543750000003
20
8.2804
30
0
0
VERTEX
8
0
10
27.666456250000003
20
8.2804
30
0
0
VERTEX
8
0
10
27.279600000000002
20
7.89354375
30
0
0
VERTEX
8
0
10
27.279600000000002
20
7.8232
30
0
0
VERTEX
8
0
10
22.987000000000002
20
7.8232
30
0
42
0.198912367379658
0
VERTEX
8
0
10
22.843315625000002
20
7.763684375
30
0
0
VERTEX
8
0
10
21.37883125
20
6.2992
30
0
0
VERTEX
8
0
10
17.399
20
6.2992
30
0
42
0.198912367379658
0
VERTEX
8
0
10
17.255315625
20
6.239684375
30
0
0
VERTEX
8
0
10
16.493315625
20
5.477684375
30
0
42
0.198912367379658
0
VERTEX
8
0
10
16.4338
20
5.3340000000000005
30
0
0
VERTEX
8
0
10
16.4338
20
3.25916875
30
0
0
VERTEX
8
0
10
15.663831250000001
20
2.4892000000000003
30
0
0
VERTEX
8
0
10
8.518168750000001
20
2.4892000000000003
30
0
0
VERTEX
8
0
10
7.88595
20
3.12141875
30
0
42
0.8842999524637697
0
VERTEX
8
0
10
7.67509375
20
5.6450000000000005
30
0
0
VERTEX
8
0
10
5.02490625
20
5.6450000000000005
30
0
42
0.9614823079240062
0
VERTEX
8
0
10
5.02490625
20
3.095
30
0
0
VERTEX
8
0
10
7.33763125
20
3.095
30
0
0
VERTEX
8
0
10
8.290315625
20
2.142315625
30
0
42
0.198912367379658
0
VERTEX
8
0
10
8.434000000000001
20
2.0828
30
0
0
VERTEX
8
0
10
15.748000000000001
20
2.0828
30
0
0
SEQEND
0
POLYLINE
66
1
8
1_copper
10
0.0
20
0.0
30
0.0
70
1
0
VERTEX
8
0
10
26.695400000000003
20
6.076456250000001
30
0
0
VERTEX
8
0
10
26.695400000000003
20
6.6235437500000005
30
0
0
VERTEX
8
0
10
26.308543750000002
20
7.010400000000001
30
0
0
VERTEX
8
0
10
25.761456250000002
20
7.010400000000001
30
0
0
VERTEX
8
0
10
25.3746
20
6.6235437500000005
30
0
0
VERTEX
8
0
10
25.3746
20
6.076456250000001
30
0
0
VERTEX
8
0
10
25.761456250000002
20
5.6896
30
0
0
VERTEX
8
0
10
26.308543750000002
20
5.6896
30
0
0
SEQEND
0
POLYLINE
66
1
8
1_copper
10
0.0
20
0.0
30
0.0
70
1
0
VERTEX
8
0
10
23.520400000000002
20
2.26645625
30
0
0
VERTEX
8
0
10
23.520400000000002
20
2.81354375
30
0
0
VERTEX
8
0
10
23.13354375
20
3.2004
30
0
0
VERTEX
8
0
10
22.58645625
20
3.2004
30
0
0
VERTEX
8
0
10
22.1996
20
2.81354375
30
0
0
VERTEX
8
0
10
22.1996
20
2.26645625
30
0
0
VERTEX
8
0
10
22.58645625
20
1.8796000000000002
30
0
0
VERTEX
8
0
10
23.13354375
20
1.8796000000000002
30
0
0
SEQEND
0
POLYLINE
66
1
8
16_copper
10
0.0
20
0.0
30
0.0
70
1
0
VERTEX
8
0
10
23.520400000000002
20
2.26645625
30
0
0
VERTEX
8
0
10
23.520400000000002
20
2.81354375
30
0
0
VERTEX
8
0
10
23.153156250000002
20
3.1807875
30
0
0
VERTEX
8
0
10
25.7117125
20
5.739343750000001
30
0
0
VERTEX
8
0
10
25.761456250000002
20
5.6896
30
0
0
VERTEX
8
0
10
26.308543750000002
20
5.6896
30
0
0
VERTEX
8
0
10
26.695400000000003
20
6.076456250000001
30
0
0
VERTEX
8
0
10
26.695400000000003
20
6.6235437500000005
30
0
0
VERTEX
8
0
10
26.308543750000002
20
7.010400000000001
30
0
0
VERTEX
8
0
10
25.761456250000002
20
7.010400000000001
30
0
0
VERTEX
8
0
10
25.3746
20
6.6235437500000005
30
0
0
VERTEX
8
0
10
25.3746
20
6.076456250000001
30
0
0
VERTEX
8
0
10
25.424343750000002
20
6.0267125
30
0
0
VERTEX
8
0
10
22.716315625
20
3.318684375
30
0
42
0.16646362973257123
0
VERTEX
8
0
10
22.658825
20
3.2004
30
0
0
VERTEX
8
0
10
22.58645625
20
3.2004
30
0
0
VERTEX
8
0
10
22.1996
20
2.81354375
30
0
0
VERTEX
8
0
10
22.1996
20
2.26645625
30
0
0
VERTEX
8
0
10
22.58645625
20
1.8796000000000002
30
0
0
VERTEX
8
0
10
23.13354375
20
1.8796000000000002
30
0
0
SEQEND
0
POLYLINE
66
1
8
1_copper
10
0.0
20
0.0
30
0.0
70
1
0
VERTEX
8
0
10
28.6004
20
4.80645625
30
0
0
VERTEX
8
0
10
28.6004
20
5.35354375
30
0
0
VERTEX
8
0
10
28.213543750000003
20
5.7404
30
0
0
VERTEX
8
0
10
27.666456250000003
20
5.7404
30
0
0
VERTEX
8
0
10
27.279600000000002
20
5.35354375
30
0
0
VERTEX
8
0
10
27.279600000000002
20
4.80645625
30
0
0
VERTEX
8
0
10
27.666456250000003
20
4.4196
30
0
0
VERTEX
8
0
10
28.213543750000003
20
4.4196
30
0
0
SEQEND
0
POLYLINE
66
1
8
1_copper
10
0.0
20
0.0
30
0.0
70
1
0
VERTEX
8
0
10
33.934400000000004
20
4.67945625
30
0
0
VERTEX
8
0
10
33.934400000000004
20
5.22654375
30
0
0
VERTEX
8
0
10
33.54754375
20
5.6134
30
0
0
VERTEX
8
0
10
33.00045625
20
5.6134
30
0
0
VERTEX
8
0
10
32.6136
20
5.22654375
30
0
0
VERTEX
8
0
10
32.6136
20
4.67945625
30
0
0
VERTEX
8
0
10
33.00045625
20
4.2926
30
0
0
VERTEX
8
0
10
33.54754375
20
4.2926
30
0
0
SEQEND
0
POLYLINE
66
1
8
16_copper
10
0.0
20
0.0
30
0.0
70
1
0
VERTEX
8
0
10
33.934400000000004
20
4.67945625
30
0
0
VERTEX
8
0
10
33.934400000000004
20
5.22654375
30
0
0
VERTEX
8
0
10
33.54754375
20
5.6134
30
0
0
VERTEX
8
0
10
33.00045625
20
5.6134
30
0
0
VERTEX
8
0
10
32.6136
20
5.22654375
30
0
0
VERTEX
8
0
10
32.6136
20
5.1562
30
0
0
VERTEX
8
0
10
28.6004
20
5.1562
30
0
0
VERTEX
8
0
10
28.6004
20
5.35354375
30
0
0
VERTEX
8
0
10
28.213543750000003
20
5.7404
30
0
0
VERTEX
8
0
10
27.666456250000003
20
5.7404
30
0
0
VERTEX
8
0
10
27.279600000000002
20
5.35354375
30
0
0
VERTEX
8
0
10
27.279600000000002
20
4.80645625
30
0
0
VERTEX
8
0
10
27.666456250000003
20
4.4196
30
0
0
VERTEX
8
0
10
28.213543750000003
20
4.4196
30
0
0
VERTEX
8
0
10
28.54374375
20
4.7498000000000005
30
0
0
VERTEX
8
0
10
32.6136
20
4.7498000000000005
30
0
0
VERTEX
8
0
10
32.6136
20
4.67945625
30
0
0
VERTEX
8
0
10
33.00045625
20
4.2926
30
0
0
VERTEX
8
0
10
33.54754375
20
4.2926
30
0
0
SEQEND
0
POLYLINE
66
1
8
1_copper
10
0.0
20
0.0
30
0.0
70
1
0
VERTEX
8
0
10
7.774975
20
7.062859375
30
0
42
0.924391256503771
0
VERTEX
8
0
10
7.67509375
20
9.605
30
0
0
VERTEX
8
0
10
5.02490625
20
9.605
30
0
42
0.9614823079240062
0
VERTEX
8
0
10
5.02490625
20
7.055000000000001
30
0
0
VERTEX
8
0
10
7.67509375
20
7.055000000000001
30
0
0
SEQEND
0
POLYLINE
66
1
8
1_copper
10
0.0
20
0.0
30
0.0
70
1
0
VERTEX
8
0
10
33.934400000000004
20
7.21945625
30
0
0
VERTEX
8
0
10
33.934400000000004
20
7.76654375
30
0
0
VERTEX
8
0
10
33.54754375
20
8.1534
30
0
0
VERTEX
8
0
10
33.00045625
20
8.1534
30
0
0
VERTEX
8
0
10
32.6136
20
7.76654375
30
0
0
VERTEX
8
0
10
32.6136
20
7.21945625
30
0
0
VERTEX
8
0
10
33.00045625
20
6.8326
30
0
0
VERTEX
8
0
10
33.54754375
20
6.8326
30
0
0
SEQEND
0
POLYLINE
66
1
8
1_copper
10
0.0
20
0.0
30
0.0
70
1
0
VERTEX
8
0
10
14.132743750000001
20
3.3347375
30
0
42
0.9063472543261978
0
VERTEX
8
0
10
14.058234375000001
20
4.8514
30
0
0
VERTEX
8
0
10
12.459365625
20
4.8514
30
0
42
0.9520795017710562
0
VERTEX
8
0
10
12.459365625
20
3.3274000000000004
30
0
0
VERTEX
8
0
10
14.058234375000001
20
3.3274000000000004
30
0
0
SEQEND
0
POLYLINE
66
1
8
16_copper
10
0.0
20
0.0
30
0.0
70
1
0
VERTEX
8
0
10
14.132743750000001
20
3.3347375
30
0
42
0.9063472543261978
0
VERTEX
8
0
10
14.058234375000001
20
4.8514
30
0
0
VERTEX
8
0
10
13.90176875
20
4.8514
30
0
0
VERTEX
8
0
10
15.832168750000001
20
6.7818000000000005
30
0
0
VERTEX
8
0
10
20.955000000000002
20
6.7818000000000005
30
0
42
0.198912367379658
0
VERTEX
8
0
10
21.098684375
20
6.841315625
30
0
0
VERTEX
8
0
10
22.81716875
20
8.559800000000001
30
0
0
VERTEX
8
0
10
31.91983125
20
8.559800000000001
30
0
0
VERTEX
8
0
10
32.66334375
20
7.8162875000000005
30
0
0
VERTEX
8
0
10
32.6136
20
7.76654375
30
0
0
VERTEX
8
0
10
32.6136
20
7.21945625
30
0
0
VERTEX
8
0
10
33.00045625
20
6.8326
30
0
0
VERTEX
8
0
10
33.54754375
20
6.8326
30
0
0
VERTEX
8
0
10
33.934400000000004
20
7.21945625
30
0
0
VERTEX
8
0
10
33.934400000000004
20
7.76654375
30
0
0
VERTEX
8
0
10
33.54754375
20
8.1534
30
0
0
VERTEX
8
0
10
33.00045625
20
8.1534
30
0
0
VERTEX
8
0
10
32.9507125
20
8.10365625
30
0
0
VERTEX
8
0
10
32.147684375000004
20
8.906684375000001
30
0
42
0.198912367379658
0
VERTEX
8
0
10
32.004000000000005
20
8.9662
30
0
0
VERTEX
8
0
10
22.733
20
8.9662
30
0
42
0.198912367379658
0
VERTEX
8
0
10
22.589315625
20
8.906684375000001
30
0
0
VERTEX
8
0
10
20.870831250000002
20
7.1882
30
0
0
VERTEX
8
0
10
15.748000000000001
20
7.1882
30
0
42
0.198912367379658
0
VERTEX
8
0
10
15.604315625
20
7.128684375000001
30
0
0
VERTEX
8
0
10
13.327031250000001
20
4.8514
30
0
0
VERTEX
8
0
10
12.784168750000001
20
4.8514
30
0
0
VERTEX
8
0
10
9.161884375
20
8.473684375000001
30
0
42
0.198912367379658
0
VERTEX
8
0
10
9.0182
20
8.5332
30
0
0
VERTEX
8
0
10
8.883709375
20
8.5332
30
0
42
0.35696731359496336
0
VERTEX
8
0
10
7.67509375
20
9.605
30
0
0
VERTEX
8
0
10
5.02490625
20
9.605
30
0
42
0.9614823079240062
0
VERTEX
8
0
10
5.02490625
20
7.055000000000001
30
0
0
VERTEX
8
0
10
7.67509375
20
7.055000000000001
30
0
42
0.35696731359496336
0
VERTEX
8
0
10
8.883709375
20
8.126800000000001
30
0
0
VERTEX
8
0
10
8.93403125
20
8.126800000000001
30
0
0
VERTEX
8
0
10
12.25000625
20
4.810825
30
0
42
0.8265527748762974
0
VERTEX
8
0
10
12.459365625
20
3.3274000000000004
30
0
0
VERTEX
8
0
10
14.058234375000001
20
3.3274000000000004
30
0
0
SEQEND
0
POLYLINE
66
1
8
1_copper
10
0.0
20
0.0
30
0.0
70
1
0
VERTEX
8
0
10
23.520400000000002
20
9.88645625
30
0
0
VERTEX
8
0
10
23.520400000000002
20
10.43354375
30
0
0
VERTEX
8
0
10
23.13354375
20
10.820400000000001
30
0
0
VERTEX
8
0
10
22.58645625
20
10.820400000000001
30
0
0
VERTEX
8
0
10
22.1996
20
10.43354375
30
0
0
VERTEX
8
0
10
22.1996
20
9.88645625
30
0
0
VERTEX
8
0
10
22.58645625
20
9.499600000000001
30
0
0
VERTEX
8
0
10
23.13354375
20
9.499600000000001
30
0
0
SEQEND
0
POLYLINE
66
1
8
1_copper
10
0.0
20
0.0
30
0.0
70
1
0
VERTEX
8
0
10
14.132743750000001
20
7.8559375000000005
30
0
42
0.9063472543261978
0
VERTEX
8
0
10
14.058234375000001
20
9.3726
30
0
0
VERTEX
8
0
10
12.459365625
20
9.3726
30
0
42
0.9520795017710562
0
VERTEX
8
0
10
12.459365625
20
7.8486
30
0
0
VERTEX
8
0
10
14.058234375000001
20
7.8486
30
0
0
SEQEND
0
POLYLINE
66
1
8
16_copper
10
0.0
20
0.0
30
0.0
70
1
0
VERTEX
8
0
10
14.132743750000001
20
7.8559375000000005
30
0
42
0.7860543056035879
0
VERTEX
8
0
10
14.267593750000001
20
9.332025
30
0
0
VERTEX
8
0
10
15.256684375
20
10.321115625000001
30
0
42
0.027411565017013795
0
VERTEX
8
0
10
15.2714125
20
10.3378
30
0
0
VERTEX
8
0
10
22.1996
20
10.3378
30
0
0
VERTEX
8
0
10
22.1996
20
9.88645625
30
0
0
VERTEX
8
0
10
22.58645625
20
9.499600000000001
30
0
0
VERTEX
8
0
10
23.13354375
20
9.499600000000001
30
0
0
VERTEX
8
0
10
23.520400000000002
20
9.88645625
30
0
0
VERTEX
8
0
10
23.520400000000002
20
10.43354375
30
0
0
VERTEX
8
0
10
23.13354375
20
10.820400000000001
30
0
0
VERTEX
8
0
10
22.58645625
20
10.820400000000001
30
0
0
VERTEX
8
0
10
22.507946875000002
20
10.741890625
30
0
42
0.03579219812622049
0
VERTEX
8
0
10
22.479000000000003
20
10.744200000000001
30
0
0
VERTEX
8
0
10
15.113000000000001
20
10.744200000000001
30
0
42
0.3671695736605142
0
VERTEX
8
0
10
14.912571875000001
20
10.5740125
30
0
0
VERTEX
8
0
10
14.91236875
20
10.573209375000001
30
0
0
VERTEX
8
0
10
14.910490625000001
20
10.549659375000001
30
0
0
VERTEX
8
0
10
13.73343125
20
9.3726
30
0
0
VERTEX
8
0
10
12.459365625
20
9.3726
30
0
42
0.9520795017710562
0
VERTEX
8
0
10
12.459365625
20
7.8486
30
0
0
VERTEX
8
0
10
14.058234375000001
20
7.8486
30
0
0
SEQEND
0
POLYLINE
66
1
8
16_copper
10
0.0
20
0.0
30
0.0
70
1
0
VERTEX
8
0
10
36.861621875000004
20
1.01606875
30
0
42
0.41302899196029463
0
VERTEX
8
0
10
37.064
20
1.219196875
30
0
0
VERTEX
8
0
10
37.064
20
11.1508
30
0
42
0.41421356237309503
0
VERTEX
8
0
10
36.860800000000005
20
11.354000000000001
30
0
0
VERTEX
8
0
10
23.521559375000002
20
11.354000000000001
30
0
42
0.6681786379192989
0
VERTEX
8
0
10
23.377875
20
11.007115625
30
0
0
VERTEX
8
0
10
23.825196875
20
10.559796875
30
0
0
VERTEX
8
0
10
23.825196875
20
9.760200000000001
30
0
0
VERTEX
8
0
10
23.682875000000003
20
9.61788125
30
0
42
0.6681786379192989
0
VERTEX
8
0
10
23.826559375000002
20
9.270996875
30
0
0
VERTEX
8
0
10
32.10505
20
9.270996875
30
0
0
VERTEX
8
0
10
32.291753125
20
9.1936625
30
0
0
VERTEX
8
0
10
32.967703125
20
8.5177125
30
0
42
0.198912367379658
0
VERTEX
8
0
10
33.1113875
20
8.458196875
30
0
0
VERTEX
8
0
10
33.673796875
20
8.458196875
30
0
0
VERTEX
8
0
10
34.239196875000005
20
7.892796875
30
0
0
VERTEX
8
0
10
34.239196875000005
20
7.0932
30
0
0
VERTEX
8
0
10
33.673796875
20
6.5278
30
0
0
VERTEX
8
0
10
32.8742
20
6.5278
30
0
0
VERTEX
8
0
10
32.308800000000005
20
7.0932
30
0
0
VERTEX
8
0
10
32.308800000000005
20
7.655609375
30
0
42
0.198912367379658
0
VERTEX
8
0
10
32.249284375
20
7.79929375
30
0
0
VERTEX
8
0
10
31.853093750000003
20
8.195484375000001
30
0
42
0.198912367379658
0
VERTEX
8
0
10
31.709409375
20
8.255
30
0
0
VERTEX
8
0
10
29.108396875
20
8.255
30
0
42
0.41421356237309503
0
VERTEX
8
0
10
28.905196875
20
8.0518
30
0
0
VERTEX
8
0
10
28.905196875
20
7.2202
30
0
0
VERTEX
8
0
10
28.339796875
20
6.654800000000001
30
0
0
VERTEX
8
0
10
27.540200000000002
20
6.654800000000001
30
0
0
VERTEX
8
0
10
27.347081250000002
20
6.847921875
30
0
42
0.6681786379192989
0
VERTEX
8
0
10
27.000196875
20
6.7042375000000005
30
0
0
VERTEX
8
0
10
27.000196875
20
5.9957593750000004
30
0
42
0.6681786379192989
0
VERTEX
8
0
10
27.347081250000002
20
5.852075
30
0
0
VERTEX
8
0
10
27.540200000000002
20
6.045196875
30
0
0
VERTEX
8
0
10
28.339796875
20
6.045196875
30
0
0
VERTEX
8
0
10
28.864478125
20
5.520512500000001
30
0
42
0.198912367379658
0
VERTEX
8
0
10
29.0081625
20
5.460996875
30
0
0
VERTEX
8
0
10
32.332834375000004
20
5.460996875
30
0
42
0.198912367379658
0
VERTEX
8
0
10
32.476518750000004
20
5.520512500000001
30
0
0
VERTEX
8
0
10
32.8742
20
5.9181968750000005
30
0
0
VERTEX
8
0
10
33.673796875
20
5.9181968750000005
30
0
0
VERTEX
8
0
10
34.239196875000005
20
5.352796875
30
0
0
VERTEX
8
0
10
34.239196875000005
20
4.5532
30
0
0
VERTEX
8
0
10
33.673796875
20
3.9878
30
0
0
VERTEX
8
0
10
32.8742
20
3.9878
30
0
0
VERTEX
8
0
10
32.476518750000004
20
4.385484375
30
0
42
0.198912367379658
0
VERTEX
8
0
10
32.332834375000004
20
4.445
30
0
0
VERTEX
8
0
10
28.7541625
20
4.445
30
0
42
0.198912367379658
0
VERTEX
8
0
10
28.610478125
20
4.385484375
30
0
0
VERTEX
8
0
10
28.339796875
20
4.1148
30
0
0
VERTEX
8
0
10
27.540200000000002
20
4.1148
30
0
0
VERTEX
8
0
10
26.974800000000002
20
4.6802
30
0
0
VERTEX
8
0
10
26.974800000000002
20
5.4342375
30
0
42
0.6681786379192989
0
VERTEX
8
0
10
26.627915625
20
5.577921875
30
0
0
VERTEX
8
0
10
26.434796875
20
5.3848
30
0
0
VERTEX
8
0
10
25.872387500000002
20
5.3848
30
0
42
0.198912367379658
0
VERTEX
8
0
10
25.728703125000003
20
5.325284375
30
0
0
VERTEX
8
0
10
23.7278875
20
3.324471875
30
0
42
0.4142167474873183
0
VERTEX
8
0
10
23.727890625
20
3.0371031250000002
30
0
0
VERTEX
8
0
10
23.825196875
20
2.9398
30
0
0
VERTEX
8
0
10
23.825196875
20
2.1402
30
0
0
VERTEX
8
0
10
23.259796875000003
20
1.5748
30
0
0
VERTEX
8
0
10
22.4602
20
1.5748
30
0
0
VERTEX
8
0
10
21.8948
20
2.1402
30
0
0
VERTEX
8
0
10
21.8948
20
2.9397968750000003
30
0
0
VERTEX
8
0
10
22.485946875
20
3.53094375
30
0
42
0.058417678523573074
0
VERTEX
8
0
10
22.524184375
20
3.558653125
30
0
0
VERTEX
8
0
10
22.53129375
20
3.5647125
30
0
0
VERTEX
8
0
10
25.010284375
20
6.043703125
30
0
42
0.198912367379658
0
VERTEX
8
0
10
25.0698
20
6.187387500000001
30
0
0
VERTEX
8
0
10
25.0698
20
6.74979375
30
0
42
0.707297987936486
0
VERTEX
8
0
10
24.941437500000003
20
7.112
30
0
0
VERTEX
8
0
10
23.2815875
20
7.112
30
0
42
0.198912367379658
0
VERTEX
8
0
10
23.137903125
20
7.052484375000001
30
0
0
VERTEX
8
0
10
21.922240625
20
5.836825
30
0
0
VERTEX
8
0
10
21.922225
20
5.83680625
30
0
0
VERTEX
8
0
10
21.750753125000003
20
5.6653343750000005
30
0
0
VERTEX
8
0
10
21.56405
20
5.588
30
0
0
VERTEX
8
0
10
17.6935875
20
5.588
30
0
42
0.198912367379658
0
VERTEX
8
0
10
17.549903125
20
5.528484375000001
30
0
0
VERTEX
8
0
10
17.2045125
20
5.18309375
30
0
42
0.198912367379658
0
VERTEX
8
0
10
17.144996875
20
5.039409375
30
0
0
VERTEX
8
0
10
17.144996875
20
3.0739468750000003
30
0
0
VERTEX
8
0
10
17.0676625
20
2.88724375
30
0
0
VERTEX
8
0
10
16.035753125
20
1.855334375
30
0
0
VERTEX
8
0
10
15.84905
20
1.778
30
0
0
VERTEX
8
0
10
8.332946875000001
20
1.778
30
0
0
VERTEX
8
0
10
8.14624375
20
1.855334375
30
0
0
VERTEX
8
0
10
7.27089375
20
2.730684375
30
0
42
0.198912367379658
0
VERTEX
8
0
10
7.1272093750000005
20
2.7902
30
0
0
VERTEX
8
0
10
4.760753125
20
2.7902
30
0
0
VERTEX
8
0
10
4.180115625
20
3.03070625
30
0
0
VERTEX
8
0
10
3.7357062500000002
20
3.4751156250000004
30
0
0
VERTEX
8
0
10
3.4952
20
4.055753125
30
0
0
VERTEX
8
0
10
3.4952
20
4.68424375
30
0
0
VERTEX
8
0
10
3.7357062500000002
20
5.26488125
30
0
0
VERTEX
8
0
10
4.180115625
20
5.709290625
30
0
0
VERTEX
8
0
10
4.760753125
20
5.9497968750000005
30
0
0
VERTEX
8
0
10
7.93924375
20
5.9497968750000005
30
0
0
VERTEX
8
0
10
8.519881250000001
20
5.709290625
30
0
0
VERTEX
8
0
10
8.964290625
20
5.26488125
30
0
0
VERTEX
8
0
10
9.204796875000001
20
4.68424375
30
0
0
VERTEX
8
0
10
9.204796875000001
20
4.055753125
30
0
0
VERTEX
8
0
10
8.964290625
20
3.47511875
30
0
0
VERTEX
8
0
10
8.630053125
20
3.14088125
30
0
42
0.6681786379192989
0
VERTEX
8
0
10
8.773737500000001
20
2.793996875
30
0
0
VERTEX
8
0
10
11.814946875
20
2.793996875
30
0
42
0.03914387510527706
0
VERTEX
8
0
10
11.850412500000001
20
2.797115625
30
0
0
VERTEX
8
0
10
11.863537500000001
20
2.800653125
30
0
42
0.5025870560859298
0
VERTEX
8
0
10
11.989812500000001
20
3.100696875
30
0
0
VERTEX
8
0
10
11.981903125
20
3.1117250000000003
30
0
42
0.13353854229728535
0
VERTEX
8
0
10
11.8925
20
3.185015625
30
0
0
VERTEX
8
0
10
11.592409375
20
3.4851062500000003
30
0
0
VERTEX
8
0
10
11.43
20
3.877196875
30
0
0
VERTEX
8
0
10
11.43
20
4.3016000000000005
30
0
0
VERTEX
8
0
10
11.592409375
20
4.6936875
30
0
42
0.4720954680592238
0
VERTEX
8
0
10
11.620565625000001
20
5.0092125
30
0
0
VERTEX
8
0
10
9.223159375
20
7.406618750000001
30
0
42
0.41421356237309503
0
VERTEX
8
0
10
8.935790625000001
20
7.406618750000001
30
0
0
VERTEX
8
0
10
8.519878125
20
6.990706250000001
30
0
0
VERTEX
8
0
10
7.93924375
20
6.7502
30
0
0
VERTEX
8
0
10
4.760753125
20
6.7502
30
0
0
VERTEX
8
0
10
4.180115625
20
6.990706250000001
30
0
0
VERTEX
8
0
10
3.7357062500000002
20
7.435115625000001
30
0
0
VERTEX
8
0
10
3.4952
20
8.015753125
30
0
0
VERTEX
8
0
10
3.4952
20
8.644243750000001
30
0
0
VERTEX
8
0
10
3.7357062500000002
20
9.224881250000001
30
0
0
VERTEX
8
0
10
4.180115625
20
9.669290625
30
0
0
VERTEX
8
0
10
4.760753125
20
9.909796875
30
0
0
VERTEX
8
0
10
7.93924375
20
9.909796875
30
0
0
VERTEX
8
0
10
8.519881250000001
20
9.669290625
30
0
0
VERTEX
8
0
10
8.964290625
20
9.224881250000001
30
0
0
VERTEX
8
0
10
9.093428125
20
8.9131125
30
0
42
0.19891733507298853
0
VERTEX
8
0
10
9.2034
20
8.8031375
30
0
0
VERTEX
8
0
10
9.305956250000001
20
8.760659375000001
30
0
0
VERTEX
8
0
10
12.850903125
20
5.2157125
30
0
42
0.198912367379658
0
VERTEX
8
0
10
12.9945875
20
5.156196875
30
0
0
VERTEX
8
0
10
13.116609375000001
20
5.156196875
30
0
42
0.198912367379658
0
VERTEX
8
0
10
13.26029375
20
5.2157125
30
0
0
VERTEX
8
0
10
15.46024375
20
7.415662500000001
30
0
0
VERTEX
8
0
10
15.646946875000001
20
7.492996875
30
0
0
VERTEX
8
0
10
18.117553125
20
7.492996875
30
0
42
0.6681786379192989
0
VERTEX
8
0
10
18.2612375
20
7.83988125
30
0
0
VERTEX
8
0
10
18.094809375
20
8.00630625
30
0
0
VERTEX
8
0
10
17.9324
20
8.398396875
30
0
0
VERTEX
8
0
10
17.9324
20
8.8228
30
0
0
VERTEX
8
0
10
18.094809375
20
9.214890625
30
0
0
VERTEX
8
0
10
18.394903125000003
20
9.514984375000001
30
0
0
VERTEX
8
0
10
18.7017125
20
9.642065625
30
0
42
0.8206840204897636
0
VERTEX
8
0
10
18.623953125
20
10.033000000000001
30
0
0
VERTEX
8
0
10
15.483784375
20
10.033000000000001
30
0
42
0.198912367379658
0
VERTEX
8
0
10
15.340100000000001
20
9.973484375
30
0
0
VERTEX
8
0
10
14.897031250000001
20
9.530415625
30
0
42
0.36832019183518566
0
VERTEX
8
0
10
14.876071875000001
20
9.267640625
30
0
0
VERTEX
8
0
10
14.897031250000001
20
9.243046875000001
30
0
0
VERTEX
8
0
10
14.9251875
20
9.214890625
30
0
0
VERTEX
8
0
10
15.087596875000001
20
8.8228
30
0
0
VERTEX
8
0
10
15.087596875000001
20
8.398396875
30
0
0
VERTEX
8
0
10
14.9251875
20
8.00630625
30
0
0
VERTEX
8
0
10
14.625090625
20
7.706209375
30
0
0
VERTEX
8
0
10
14.233
20
7.5438
30
0
0
VERTEX
8
0
10
12.284596875
20
7.5438
30
0
0
VERTEX
8
0
10
11.89250625
20
7.706209375
30
0
0
VERTEX
8
0
10
11.592409375
20
8.00630625
30
0
0
VERTEX
8
0
10
11.43
20
8.398396875
30
0
0
VERTEX
8
0
10
11.43
20
8.8228
30
0
0
VERTEX
8
0
10
11.592409375
20
9.214890625
30
0
0
VERTEX
8
0
10
11.89250625
20
9.5149875
30
0
0
VERTEX
8
0
10
12.284596875
20
9.677396875000001
30
0
0
VERTEX
8
0
10
13.5230125
20
9.677396875000001
30
0
42
0.198912367379658
0
VERTEX
8
0
10
13.666696875000001
20
9.7369125
30
0
0
VERTEX
8
0
10
14.599878125
20
10.670093750000001
30
0
42
0.098498145173387
0
VERTEX
8
0
10
14.643928125
20
10.736021875
30
0
0
VERTEX
8
0
10
14.682337500000001
20
10.82875625
30
0
0
VERTEX
8
0
10
14.828559375000001
20
10.974978125
30
0
42
0.7668110452473539
0
VERTEX
8
0
10
14.72674375
20
11.354000000000001
30
0
0
VERTEX
8
0
10
1.219196875
20
11.354000000000001
30
0
42
0.41421356237309503
0
VERTEX
8
0
10
1.0159968750000001
20
11.1508
30
0
0
VERTEX
8
0
10
1.0159968750000001
20
1.219196875
30
0
42
0.41421356237309503
0
VERTEX
8
0
10
1.219196875
20
1.0159968750000001
30
0
0
VERTEX
8
0
10
36.860800000000005
20
1.0159968750000001
30
0
0
SEQEND
0
POLYLINE
66
1
8
16_copper
10
0.0
20
0.0
30
0.0
70
1
0
VERTEX
8
0
10
21.80413125
20
8.62668125
30
0
42
0.184915542480753
0
VERTEX
8
0
10
21.936881250000003
20
8.685296875
30
0
0
VERTEX
8
0
10
22.309609375
20
9.058025
30
0
42
0.41421356237309503
0
VERTEX
8
0
10
22.309609375
20
9.345393750000001
30
0
0
VERTEX
8
0
10
21.8948
20
9.760200000000001
30
0
0
VERTEX
8
0
10
21.8948
20
9.8298
30
0
42
0.41421356237309503
0
VERTEX
8
0
10
21.6916
20
10.033000000000001
30
0
0
VERTEX
8
0
10
20.898443750000002
20
10.033000000000001
30
0
42
0.8206840204897636
0
VERTEX
8
0
10
20.820684375000003
20
9.642065625
30
0
0
VERTEX
8
0
10
21.12749375
20
9.514984375000001
30
0
0
VERTEX
8
0
10
21.4275875
20
9.214890625
30
0
0
VERTEX
8
0
10
21.5906875
20
8.821134375
30
0
0
VERTEX
8
0
10
21.590815625
20
8.81968125
30
0
0
VERTEX
8
0
10
21.590853125000002
20
8.810359375
30
0
0
VERTEX
8
0
10
21.592368750000002
20
8.802003125
30
0
0
VERTEX
8
0
10
21.593115625
20
8.793515625000001
30
0
0
VERTEX
8
0
10
21.595546875
20
8.784493750000001
30
0
0
VERTEX
8
0
10
21.597209375000002
20
8.775328125
30
0
0
VERTEX
8
0
10
21.6001625
20
8.76735625
30
0
0
VERTEX
8
0
10
21.602378125
20
8.7591375
30
0
0
VERTEX
8
0
10
21.606337500000002
20
8.750696875000001
30
0
0
VERTEX
8
0
10
21.60958125
20
8.74194375
30
0
0
VERTEX
8
0
10
21.613890625
20
8.734596875000001
30
0
0
VERTEX
8
0
10
21.617496875
20
8.72690625
30
0
0
VERTEX
8
0
10
21.6228625
20
8.71929375
30
0
0
VERTEX
8
0
10
21.627590625
20
8.71123125
30
0
0
VERTEX
8
0
10
21.633115625000002
20
8.704746875
30
0
0
VERTEX
8
0
10
21.638009375
20
8.697806250000001
30
0
0
VERTEX
8
0
10
21.644621875000002
20
8.691246875000001
30
0
0
VERTEX
8
0
10
21.650684375
20
8.684134375000001
30
0
0
VERTEX
8
0
10
21.6572625
20
8.678709375
30
0
0
VERTEX
8
0
10
21.663287500000003
20
8.672734375000001
30
0
0
VERTEX
8
0
10
21.670946875000002
20
8.667428125
30
0
0
VERTEX
8
0
10
21.678153125
20
8.661484375
30
0
0
VERTEX
8
0
10
21.685553125000002
20
8.657303125
30
0
0
VERTEX
8
0
10
21.69255
20
8.65245625
30
0
0
VERTEX
8
0
10
21.701034375000003
20
8.6485625
30
0
0
VERTEX
8
0
10
21.709153125
20
8.643975000000001
30
0
0
VERTEX
8
0
10
21.717178125
20
8.64115
30
0
0
VERTEX
8
0
10
21.72490625
20
8.6376
30
0
0
VERTEX
8
0
10
21.733934375
20
8.635246875
30
0
0
VERTEX
8
0
10
21.742734375
20
8.632146875
30
0
0
VERTEX
8
0
10
21.751128125
20
8.630765625
30
0
0
VERTEX
8
0
10
21.75935625
20
8.628618750000001
30
0
0
VERTEX
8
0
10
21.768646875
20
8.627878125
30
0
0
VERTEX
8
0
10
21.7778625
20
8.626359375
30
0
0
VERTEX
8
0
10
21.786375
20
8.6264625
30
0
0
VERTEX
8
0
10
21.794846875
20
8.625787500000001
30
0
0
SEQEND
0
POLYLINE
66
1
8
16_copper
10
0.0
20
0.0
30
0.0
70
1
0
VERTEX
8
0
10
15.4635125
20
2.794884375
30
0
42
0.18597604843350257
0
VERTEX
8
0
10
15.59709375
20
2.8535125000000003
30
0
0
VERTEX
8
0
10
16.069484375000002
20
3.325903125
30
0
42
0.198912367379658
0
VERTEX
8
0
10
16.129
20
3.4695875000000003
30
0
0
VERTEX
8
0
10
16.129
20
5.43505
30
0
0
VERTEX
8
0
10
16.206334375
20
5.621753125000001
30
0
0
VERTEX
8
0
10
16.7147
20
6.130115625
30
0
42
0.6681786379192989
0
VERTEX
8
0
10
16.571015625
20
6.477
30
0
0
VERTEX
8
0
10
16.0425875
20
6.477
30
0
42
0.198912367379658
0
VERTEX
8
0
10
15.898903125
20
6.417484375
30
0
0
VERTEX
8
0
10
14.69383125
20
5.2124125
30
0
42
0.41421356237309503
0
VERTEX
8
0
10
14.69383125
20
4.92504375
30
0
0
VERTEX
8
0
10
14.9251875
20
4.693690625
30
0
0
VERTEX
8
0
10
15.087596875000001
20
4.3016000000000005
30
0
0
VERTEX
8
0
10
15.087596875000001
20
3.877196875
30
0
0
VERTEX
8
0
10
14.9251875
20
3.4851062500000003
30
0
0
VERTEX
8
0
10
14.625096875
20
3.185015625
30
0
42
0.8211429397636244
0
VERTEX
8
0
10
14.70265
20
2.793996875
30
0
0
VERTEX
8
0
10
15.453409375000001
20
2.793996875
30
0
0
SEQEND
0
POLYLINE
66
1
8
16_copper
10
0.0
20
0.0
30
0.0
70
1
0
VERTEX
8
0
10
18.786996875
20
3.0226
30
0
0
VERTEX
8
0
10
18.394906250000002
20
3.1850093750000004
30
0
0
VERTEX
8
0
10
18.094809375
20
3.4851062500000003
30
0
0
VERTEX
8
0
10
17.9324
20
3.877196875
30
0
0
VERTEX
8
0
10
17.9324
20
4.3016000000000005
30
0
0
VERTEX
8
0
10
18.094809375
20
4.693690625
30
0
0
VERTEX
8
0
10
18.394906250000002
20
4.9937875
30
0
0
VERTEX
8
0
10
18.786996875
20
5.156196875
30
0
0
VERTEX
8
0
10
20.735400000000002
20
5.156196875
30
0
0
VERTEX
8
0
10
21.127490625
20
4.9937875
30
0
0
VERTEX
8
0
10
21.4275875
20
4.693690625
30
0
0
VERTEX
8
0
10
21.589996875
20
4.3016000000000005
30
0
0
VERTEX
8
0
10
21.589996875
20
3.877196875
30
0
0
VERTEX
8
0
10
21.4275875
20
3.4851062500000003
30
0
0
VERTEX
8
0
10
21.127490625
20
3.1850093750000004
30
0
0
VERTEX
8
0
10
20.735400000000002
20
3.0226
30
0
0
SEQEND
0
CIRCLE
8
drills_PTH
10
6.3500000000000005
20
4.37
30
0
40
0.8500000000000001
0
CIRCLE
8
drills_PTH
10
6.3500000000000005
20
8.33
30
0
40
0.8500000000000001
0
CIRCLE
8
drills_PTH
10
19.761200000000002
20
4.0894
30
0
40
0.508
0
CIRCLE
8
drills_PTH
10
19.761200000000002
20
8.6106
30
0
40
0.508
0
CIRCLE
8
drills_PTH
10
13.2588
20
4.0894
30
0
40
0.508
0
CIRCLE
8
drills_PTH
10
13.2588
20
8.6106
30
0
40
0.508
0
CIRCLE
8
drills_PTH
10
33.274
20
7.493
30
0
40
0.40640000000000004
0
CIRCLE
8
drills_PTH
10
33.274
20
4.953
30
0
40
0.40640000000000004
0
CIRCLE
8
drills_PTH
10
27.94
20
7.62
30
0
40
0.40640000000000004
0
CIRCLE
8
drills_PTH
10
26.035
20
6.3500000000000005
30
0
40
0.40640000000000004
0
CIRCLE
8
drills_PTH
10
27.94
20
5.08
30
0
40
0.40640000000000004
0
CIRCLE
8
drills_PTH
10
22.86
20
10.16
30
0
40
0.40640000000000004
0
CIRCLE
8
drills_PTH
10
22.86
20
2.54
30
0
40
0.40640000000000004
0
ENDSEC
0
EOF