G04 EAGLE Gerber X2 export*
%TF.Part,Single*%
%TF.FileFunction,Copper,L2,Bot,Mixed*%
%TF.FilePolarity,Positive*%
%TF.GenerationSoftware,Autodesk,EAGLE,9.1.0*%
%TF.CreationDate,2018-09-09T02:29:42Z*%
G75*
%MOMM*%
%FSLAX34Y34*%
%LPD*%
%AMOC8*
5,1,8,0,0,1.08239X$1,22.5*%
G01*
%ADD10C,2.550000*%
%ADD11P,1.429621X8X292.500000*%
%ADD12P,1.429621X8X112.500000*%
%ADD13C,1.524000*%
%ADD14C,0.406400*%

G36*
X368626Y10163D02*
X368626Y10163D01*
X368644Y10161D01*
X368826Y10182D01*
X369009Y10201D01*
X369026Y10206D01*
X369043Y10208D01*
X369218Y10265D01*
X369394Y10319D01*
X369409Y10327D01*
X369426Y10333D01*
X369586Y10423D01*
X369748Y10511D01*
X369761Y10522D01*
X369777Y10531D01*
X369916Y10651D01*
X370057Y10768D01*
X370068Y10782D01*
X370082Y10794D01*
X370194Y10939D01*
X370309Y11082D01*
X370317Y11098D01*
X370328Y11112D01*
X370410Y11277D01*
X370495Y11439D01*
X370500Y11456D01*
X370508Y11472D01*
X370555Y11651D01*
X370606Y11826D01*
X370608Y11844D01*
X370612Y11861D01*
X370639Y12192D01*
X370639Y111508D01*
X370637Y111526D01*
X370639Y111544D01*
X370618Y111726D01*
X370599Y111909D01*
X370594Y111926D01*
X370592Y111943D01*
X370535Y112118D01*
X370481Y112294D01*
X370473Y112309D01*
X370467Y112326D01*
X370377Y112486D01*
X370289Y112648D01*
X370278Y112661D01*
X370269Y112677D01*
X370149Y112816D01*
X370032Y112957D01*
X370018Y112968D01*
X370006Y112982D01*
X369861Y113094D01*
X369718Y113209D01*
X369702Y113217D01*
X369688Y113228D01*
X369523Y113310D01*
X369361Y113395D01*
X369344Y113400D01*
X369328Y113408D01*
X369149Y113455D01*
X368974Y113506D01*
X368956Y113508D01*
X368939Y113512D01*
X368608Y113539D01*
X235216Y113539D01*
X235207Y113538D01*
X235198Y113539D01*
X235006Y113518D01*
X234815Y113499D01*
X234806Y113497D01*
X234798Y113496D01*
X234615Y113438D01*
X234430Y113381D01*
X234422Y113377D01*
X234414Y113374D01*
X234245Y113281D01*
X234076Y113189D01*
X234069Y113184D01*
X234061Y113179D01*
X233914Y113055D01*
X233767Y112932D01*
X233761Y112925D01*
X233754Y112919D01*
X233635Y112768D01*
X233514Y112618D01*
X233510Y112610D01*
X233505Y112603D01*
X233417Y112430D01*
X233329Y112261D01*
X233327Y112252D01*
X233322Y112244D01*
X233271Y112058D01*
X233218Y111874D01*
X233217Y111865D01*
X233214Y111856D01*
X233200Y111663D01*
X233185Y111472D01*
X233186Y111464D01*
X233185Y111455D01*
X233209Y111262D01*
X233232Y111073D01*
X233234Y111064D01*
X233235Y111055D01*
X233297Y110872D01*
X233356Y110690D01*
X233361Y110682D01*
X233364Y110674D01*
X233460Y110507D01*
X233554Y110339D01*
X233560Y110332D01*
X233565Y110325D01*
X233779Y110072D01*
X238253Y105598D01*
X238253Y97602D01*
X236829Y96178D01*
X236824Y96171D01*
X236817Y96166D01*
X236696Y96016D01*
X236574Y95867D01*
X236570Y95859D01*
X236564Y95852D01*
X236476Y95682D01*
X236386Y95511D01*
X236383Y95502D01*
X236379Y95495D01*
X236326Y95310D01*
X236271Y95125D01*
X236270Y95116D01*
X236268Y95108D01*
X236252Y94915D01*
X236234Y94724D01*
X236235Y94715D01*
X236235Y94706D01*
X236257Y94517D01*
X236278Y94324D01*
X236281Y94315D01*
X236282Y94307D01*
X236341Y94125D01*
X236399Y93940D01*
X236404Y93932D01*
X236406Y93924D01*
X236501Y93757D01*
X236594Y93588D01*
X236600Y93581D01*
X236604Y93573D01*
X236729Y93428D01*
X236855Y93281D01*
X236862Y93275D01*
X236867Y93268D01*
X237018Y93152D01*
X237171Y93031D01*
X237179Y93027D01*
X237186Y93022D01*
X237357Y92936D01*
X237530Y92849D01*
X237538Y92846D01*
X237546Y92842D01*
X237732Y92792D01*
X237917Y92741D01*
X237926Y92740D01*
X237935Y92738D01*
X238266Y92711D01*
X321051Y92711D01*
X322918Y91937D01*
X329678Y85178D01*
X329698Y85161D01*
X329716Y85140D01*
X329854Y85033D01*
X329989Y84923D01*
X330013Y84910D01*
X330034Y84894D01*
X330191Y84816D01*
X330345Y84734D01*
X330370Y84726D01*
X330394Y84714D01*
X330564Y84669D01*
X330731Y84619D01*
X330757Y84617D01*
X330783Y84610D01*
X331114Y84583D01*
X336738Y84583D01*
X342393Y78928D01*
X342393Y70932D01*
X336738Y65277D01*
X328742Y65277D01*
X323087Y70932D01*
X323087Y76556D01*
X323085Y76583D01*
X323087Y76609D01*
X323065Y76783D01*
X323047Y76957D01*
X323040Y76982D01*
X323036Y77009D01*
X322981Y77175D01*
X322929Y77342D01*
X322916Y77365D01*
X322908Y77391D01*
X322821Y77542D01*
X322737Y77696D01*
X322720Y77716D01*
X322707Y77739D01*
X322492Y77992D01*
X318530Y81954D01*
X318510Y81971D01*
X318492Y81992D01*
X318354Y82099D01*
X318219Y82209D01*
X318195Y82222D01*
X318174Y82238D01*
X318017Y82316D01*
X317863Y82398D01*
X317838Y82406D01*
X317814Y82418D01*
X317644Y82463D01*
X317477Y82513D01*
X317451Y82515D01*
X317425Y82522D01*
X317094Y82549D01*
X291084Y82549D01*
X291066Y82547D01*
X291048Y82549D01*
X290866Y82528D01*
X290683Y82509D01*
X290666Y82504D01*
X290649Y82502D01*
X290474Y82445D01*
X290298Y82391D01*
X290283Y82383D01*
X290266Y82377D01*
X290106Y82287D01*
X289944Y82199D01*
X289931Y82188D01*
X289915Y82179D01*
X289776Y82059D01*
X289635Y81942D01*
X289624Y81928D01*
X289610Y81916D01*
X289498Y81771D01*
X289383Y81628D01*
X289375Y81612D01*
X289364Y81598D01*
X289282Y81433D01*
X289197Y81271D01*
X289192Y81254D01*
X289184Y81238D01*
X289137Y81059D01*
X289086Y80884D01*
X289084Y80866D01*
X289080Y80849D01*
X289053Y80518D01*
X289053Y72202D01*
X283398Y66547D01*
X275402Y66547D01*
X273470Y68479D01*
X273463Y68484D01*
X273458Y68491D01*
X273447Y68500D01*
X273439Y68509D01*
X273340Y68586D01*
X273309Y68611D01*
X273159Y68734D01*
X273151Y68738D01*
X273144Y68744D01*
X273122Y68755D01*
X273121Y68756D01*
X273102Y68765D01*
X272974Y68832D01*
X272803Y68922D01*
X272794Y68925D01*
X272787Y68929D01*
X272602Y68982D01*
X272417Y69037D01*
X272408Y69038D01*
X272400Y69040D01*
X272209Y69056D01*
X272016Y69074D01*
X272007Y69073D01*
X271998Y69073D01*
X271809Y69051D01*
X271616Y69030D01*
X271607Y69027D01*
X271599Y69026D01*
X271417Y68967D01*
X271232Y68909D01*
X271224Y68904D01*
X271216Y68902D01*
X271047Y68807D01*
X270880Y68714D01*
X270873Y68708D01*
X270865Y68704D01*
X270719Y68578D01*
X270573Y68453D01*
X270567Y68446D01*
X270560Y68441D01*
X270443Y68289D01*
X270323Y68137D01*
X270319Y68129D01*
X270314Y68122D01*
X270228Y67950D01*
X270141Y67778D01*
X270138Y67770D01*
X270134Y67762D01*
X270084Y67576D01*
X270033Y67391D01*
X270032Y67382D01*
X270030Y67373D01*
X270003Y67042D01*
X270003Y59958D01*
X270004Y59949D01*
X270003Y59940D01*
X270024Y59748D01*
X270043Y59557D01*
X270045Y59548D01*
X270046Y59540D01*
X270104Y59357D01*
X270161Y59172D01*
X270165Y59164D01*
X270168Y59156D01*
X270261Y58987D01*
X270353Y58818D01*
X270358Y58811D01*
X270363Y58803D01*
X270487Y58656D01*
X270610Y58509D01*
X270617Y58503D01*
X270623Y58496D01*
X270774Y58377D01*
X270924Y58256D01*
X270932Y58252D01*
X270939Y58247D01*
X271112Y58159D01*
X271281Y58071D01*
X271290Y58069D01*
X271298Y58064D01*
X271484Y58013D01*
X271668Y57960D01*
X271677Y57959D01*
X271686Y57956D01*
X271879Y57942D01*
X272070Y57927D01*
X272078Y57928D01*
X272087Y57927D01*
X272280Y57951D01*
X272469Y57974D01*
X272478Y57976D01*
X272487Y57977D01*
X272670Y58039D01*
X272852Y58098D01*
X272860Y58103D01*
X272868Y58106D01*
X273034Y58201D01*
X273203Y58296D01*
X273210Y58302D01*
X273217Y58307D01*
X273470Y58521D01*
X275402Y60453D01*
X283398Y60453D01*
X288645Y55206D01*
X288666Y55189D01*
X288684Y55168D01*
X288822Y55061D01*
X288957Y54951D01*
X288980Y54938D01*
X289002Y54922D01*
X289158Y54844D01*
X289313Y54762D01*
X289338Y54754D01*
X289362Y54742D01*
X289531Y54697D01*
X289698Y54647D01*
X289725Y54645D01*
X289751Y54638D01*
X290082Y54611D01*
X323328Y54611D01*
X323355Y54613D01*
X323382Y54611D01*
X323556Y54633D01*
X323729Y54651D01*
X323754Y54658D01*
X323781Y54662D01*
X323947Y54718D01*
X324114Y54769D01*
X324137Y54782D01*
X324163Y54790D01*
X324314Y54877D01*
X324468Y54961D01*
X324488Y54978D01*
X324512Y54991D01*
X324765Y55206D01*
X328742Y59183D01*
X336738Y59183D01*
X342393Y53528D01*
X342393Y45532D01*
X336738Y39877D01*
X328742Y39877D01*
X324765Y43854D01*
X324744Y43871D01*
X324726Y43892D01*
X324589Y43999D01*
X324453Y44109D01*
X324430Y44122D01*
X324408Y44138D01*
X324252Y44216D01*
X324097Y44298D01*
X324072Y44306D01*
X324048Y44318D01*
X323879Y44363D01*
X323712Y44413D01*
X323685Y44415D01*
X323659Y44422D01*
X323328Y44449D01*
X287542Y44449D01*
X287515Y44447D01*
X287488Y44449D01*
X287314Y44427D01*
X287141Y44409D01*
X287116Y44402D01*
X287089Y44398D01*
X286923Y44342D01*
X286756Y44291D01*
X286733Y44278D01*
X286707Y44270D01*
X286556Y44183D01*
X286402Y44099D01*
X286382Y44082D01*
X286358Y44069D01*
X286105Y43854D01*
X283398Y41147D01*
X275402Y41147D01*
X269747Y46802D01*
X269747Y54342D01*
X269746Y54351D01*
X269747Y54360D01*
X269726Y54552D01*
X269707Y54743D01*
X269705Y54752D01*
X269704Y54760D01*
X269646Y54943D01*
X269589Y55128D01*
X269585Y55136D01*
X269582Y55144D01*
X269489Y55313D01*
X269397Y55482D01*
X269392Y55489D01*
X269387Y55497D01*
X269263Y55644D01*
X269140Y55791D01*
X269133Y55797D01*
X269127Y55804D01*
X268976Y55923D01*
X268826Y56044D01*
X268818Y56048D01*
X268811Y56053D01*
X268638Y56141D01*
X268469Y56229D01*
X268460Y56231D01*
X268452Y56236D01*
X268266Y56287D01*
X268082Y56340D01*
X268073Y56341D01*
X268064Y56344D01*
X267871Y56358D01*
X267680Y56373D01*
X267672Y56372D01*
X267663Y56373D01*
X267470Y56349D01*
X267281Y56326D01*
X267272Y56324D01*
X267263Y56323D01*
X267080Y56261D01*
X266898Y56202D01*
X266890Y56197D01*
X266882Y56194D01*
X266716Y56099D01*
X266547Y56004D01*
X266540Y55998D01*
X266533Y55993D01*
X266280Y55779D01*
X264348Y53847D01*
X258724Y53847D01*
X258697Y53845D01*
X258671Y53847D01*
X258497Y53825D01*
X258323Y53807D01*
X258298Y53800D01*
X258271Y53796D01*
X258105Y53741D01*
X257938Y53689D01*
X257915Y53676D01*
X257889Y53668D01*
X257738Y53581D01*
X257584Y53497D01*
X257564Y53480D01*
X257541Y53467D01*
X257288Y53252D01*
X237279Y33244D01*
X237268Y33230D01*
X237254Y33219D01*
X237140Y33075D01*
X237024Y32933D01*
X237016Y32917D01*
X237005Y32903D01*
X236922Y32739D01*
X236836Y32577D01*
X236831Y32560D01*
X236823Y32544D01*
X236773Y32366D01*
X236721Y32191D01*
X236719Y32173D01*
X236715Y32156D01*
X236701Y31973D01*
X236685Y31790D01*
X236686Y31772D01*
X236685Y31755D01*
X236708Y31572D01*
X236728Y31390D01*
X236733Y31373D01*
X236736Y31355D01*
X236794Y31181D01*
X236849Y31006D01*
X236858Y30990D01*
X236864Y30973D01*
X236955Y30815D01*
X237044Y30654D01*
X237056Y30640D01*
X237065Y30625D01*
X237279Y30372D01*
X238253Y29398D01*
X238253Y21402D01*
X232598Y15747D01*
X224602Y15747D01*
X218947Y21402D01*
X218947Y29398D01*
X224876Y35327D01*
X225016Y35403D01*
X225036Y35420D01*
X225059Y35433D01*
X225312Y35648D01*
X250102Y60438D01*
X250119Y60458D01*
X250140Y60476D01*
X250247Y60614D01*
X250357Y60749D01*
X250370Y60773D01*
X250386Y60794D01*
X250464Y60951D01*
X250546Y61105D01*
X250554Y61130D01*
X250566Y61154D01*
X250611Y61324D01*
X250661Y61491D01*
X250663Y61517D01*
X250670Y61543D01*
X250697Y61874D01*
X250697Y67498D01*
X250851Y67652D01*
X250856Y67659D01*
X250863Y67664D01*
X250983Y67813D01*
X251106Y67963D01*
X251110Y67971D01*
X251116Y67978D01*
X251203Y68146D01*
X251294Y68319D01*
X251297Y68328D01*
X251301Y68335D01*
X251354Y68519D01*
X251409Y68705D01*
X251410Y68714D01*
X251412Y68722D01*
X251428Y68913D01*
X251446Y69106D01*
X251445Y69115D01*
X251445Y69124D01*
X251423Y69313D01*
X251402Y69506D01*
X251399Y69515D01*
X251398Y69523D01*
X251339Y69706D01*
X251281Y69890D01*
X251276Y69898D01*
X251274Y69906D01*
X251179Y70075D01*
X251086Y70242D01*
X251080Y70249D01*
X251076Y70257D01*
X250950Y70402D01*
X250825Y70549D01*
X250818Y70555D01*
X250813Y70562D01*
X250661Y70679D01*
X250509Y70799D01*
X250501Y70803D01*
X250494Y70808D01*
X250321Y70895D01*
X250151Y70981D01*
X250142Y70984D01*
X250134Y70988D01*
X249946Y71038D01*
X249763Y71089D01*
X249754Y71090D01*
X249745Y71092D01*
X249414Y71119D01*
X232816Y71119D01*
X232789Y71117D01*
X232763Y71119D01*
X232589Y71097D01*
X232415Y71079D01*
X232390Y71072D01*
X232363Y71068D01*
X232197Y71013D01*
X232030Y70961D01*
X232007Y70948D01*
X231981Y70940D01*
X231830Y70853D01*
X231676Y70769D01*
X231656Y70752D01*
X231633Y70739D01*
X231380Y70524D01*
X219223Y58368D01*
X217508Y56653D01*
X215641Y55879D01*
X176936Y55879D01*
X176909Y55877D01*
X176883Y55879D01*
X176709Y55857D01*
X176535Y55839D01*
X176510Y55832D01*
X176483Y55828D01*
X176317Y55773D01*
X176150Y55721D01*
X176127Y55708D01*
X176101Y55700D01*
X175950Y55613D01*
X175796Y55529D01*
X175776Y55512D01*
X175753Y55499D01*
X175500Y55284D01*
X172046Y51830D01*
X172029Y51810D01*
X172008Y51792D01*
X171901Y51654D01*
X171791Y51519D01*
X171778Y51495D01*
X171762Y51474D01*
X171684Y51317D01*
X171602Y51163D01*
X171594Y51138D01*
X171582Y51114D01*
X171537Y50944D01*
X171487Y50777D01*
X171485Y50751D01*
X171478Y50725D01*
X171451Y50394D01*
X171451Y30739D01*
X170677Y28872D01*
X160358Y18553D01*
X158491Y17779D01*
X83329Y17779D01*
X81462Y18553D01*
X72708Y27306D01*
X72688Y27323D01*
X72670Y27344D01*
X72532Y27451D01*
X72397Y27561D01*
X72373Y27574D01*
X72352Y27590D01*
X72195Y27668D01*
X72041Y27750D01*
X72016Y27758D01*
X71992Y27770D01*
X71822Y27815D01*
X71655Y27865D01*
X71629Y27867D01*
X71603Y27874D01*
X71272Y27901D01*
X47607Y27901D01*
X41801Y30306D01*
X37356Y34751D01*
X34951Y40557D01*
X34951Y46843D01*
X37356Y52649D01*
X41801Y57094D01*
X47607Y59499D01*
X79393Y59499D01*
X85199Y57094D01*
X89644Y52649D01*
X92049Y46843D01*
X92049Y40557D01*
X89644Y34751D01*
X86301Y31408D01*
X86295Y31401D01*
X86289Y31396D01*
X86168Y31246D01*
X86046Y31097D01*
X86042Y31089D01*
X86036Y31082D01*
X85948Y30912D01*
X85857Y30741D01*
X85855Y30732D01*
X85851Y30725D01*
X85798Y30540D01*
X85743Y30355D01*
X85742Y30346D01*
X85739Y30338D01*
X85724Y30147D01*
X85706Y29954D01*
X85707Y29945D01*
X85706Y29936D01*
X85729Y29747D01*
X85750Y29554D01*
X85752Y29545D01*
X85753Y29537D01*
X85813Y29355D01*
X85871Y29170D01*
X85875Y29162D01*
X85878Y29154D01*
X85973Y28985D01*
X86066Y28818D01*
X86072Y28811D01*
X86076Y28803D01*
X86202Y28657D01*
X86326Y28511D01*
X86333Y28505D01*
X86339Y28498D01*
X86491Y28381D01*
X86642Y28261D01*
X86650Y28257D01*
X86657Y28252D01*
X86829Y28166D01*
X87001Y28079D01*
X87010Y28076D01*
X87018Y28072D01*
X87204Y28022D01*
X87389Y27971D01*
X87398Y27970D01*
X87407Y27968D01*
X87737Y27941D01*
X118149Y27941D01*
X118154Y27941D01*
X118158Y27941D01*
X118354Y27961D01*
X118550Y27981D01*
X118554Y27982D01*
X118559Y27982D01*
X118748Y28041D01*
X118935Y28099D01*
X118939Y28101D01*
X118943Y28102D01*
X119116Y28197D01*
X119289Y28291D01*
X119293Y28293D01*
X119296Y28296D01*
X119448Y28423D01*
X119598Y28548D01*
X119601Y28552D01*
X119605Y28555D01*
X119728Y28709D01*
X119851Y28862D01*
X119853Y28866D01*
X119856Y28870D01*
X119946Y29047D01*
X120036Y29219D01*
X120037Y29224D01*
X120039Y29228D01*
X120094Y29419D01*
X120148Y29606D01*
X120148Y29611D01*
X120149Y29615D01*
X120164Y29807D01*
X120180Y30008D01*
X120180Y30012D01*
X120180Y30017D01*
X120156Y30212D01*
X120134Y30407D01*
X120132Y30412D01*
X120132Y30416D01*
X120070Y30603D01*
X120009Y30790D01*
X120006Y30794D01*
X120005Y30798D01*
X119908Y30968D01*
X119811Y31141D01*
X119808Y31144D01*
X119806Y31148D01*
X119677Y31296D01*
X119548Y31445D01*
X119544Y31448D01*
X119541Y31452D01*
X119386Y31571D01*
X119230Y31692D01*
X119225Y31694D01*
X119222Y31697D01*
X118927Y31849D01*
X118925Y31850D01*
X115923Y34851D01*
X114299Y38772D01*
X114299Y43016D01*
X115923Y46937D01*
X116205Y47219D01*
X116216Y47233D01*
X116230Y47244D01*
X116344Y47389D01*
X116460Y47530D01*
X116469Y47546D01*
X116480Y47560D01*
X116563Y47724D01*
X116649Y47886D01*
X116654Y47903D01*
X116662Y47919D01*
X116711Y48096D01*
X116764Y48272D01*
X116765Y48290D01*
X116770Y48307D01*
X116783Y48490D01*
X116800Y48673D01*
X116798Y48691D01*
X116799Y48709D01*
X116776Y48891D01*
X116757Y49073D01*
X116751Y49090D01*
X116749Y49108D01*
X116691Y49282D01*
X116635Y49457D01*
X116626Y49473D01*
X116621Y49490D01*
X116529Y49649D01*
X116440Y49809D01*
X116429Y49823D01*
X116420Y49839D01*
X116205Y50092D01*
X92231Y74066D01*
X92217Y74077D01*
X92206Y74091D01*
X92062Y74204D01*
X91920Y74321D01*
X91904Y74329D01*
X91890Y74340D01*
X91725Y74424D01*
X91564Y74509D01*
X91547Y74514D01*
X91531Y74523D01*
X91353Y74572D01*
X91178Y74624D01*
X91160Y74626D01*
X91143Y74631D01*
X90960Y74644D01*
X90777Y74661D01*
X90759Y74659D01*
X90741Y74660D01*
X90559Y74637D01*
X90377Y74617D01*
X90360Y74612D01*
X90342Y74610D01*
X90168Y74551D01*
X89993Y74496D01*
X89977Y74487D01*
X89960Y74481D01*
X89801Y74389D01*
X89641Y74301D01*
X89627Y74289D01*
X89611Y74280D01*
X89358Y74066D01*
X85199Y69906D01*
X79393Y67501D01*
X47607Y67501D01*
X41801Y69906D01*
X37356Y74351D01*
X34951Y80157D01*
X34951Y86443D01*
X37356Y92249D01*
X41801Y96694D01*
X47607Y99099D01*
X79393Y99099D01*
X85199Y96694D01*
X89644Y92249D01*
X90935Y89131D01*
X90948Y89108D01*
X90956Y89082D01*
X91042Y88931D01*
X91125Y88777D01*
X91142Y88756D01*
X91155Y88733D01*
X91270Y88601D01*
X91382Y88466D01*
X91402Y88449D01*
X91420Y88429D01*
X91559Y88322D01*
X91694Y88212D01*
X91718Y88200D01*
X91739Y88184D01*
X92034Y88032D01*
X93060Y87607D01*
X128510Y52158D01*
X128530Y52141D01*
X128548Y52120D01*
X128686Y52013D01*
X128821Y51903D01*
X128845Y51890D01*
X128866Y51874D01*
X129023Y51796D01*
X129177Y51714D01*
X129202Y51706D01*
X129226Y51694D01*
X129396Y51649D01*
X129563Y51599D01*
X129589Y51597D01*
X129615Y51590D01*
X129946Y51563D01*
X131166Y51563D01*
X131193Y51565D01*
X131219Y51563D01*
X131393Y51585D01*
X131567Y51603D01*
X131592Y51610D01*
X131619Y51614D01*
X131785Y51669D01*
X131952Y51721D01*
X131975Y51734D01*
X132001Y51742D01*
X132152Y51829D01*
X132306Y51913D01*
X132326Y51930D01*
X132349Y51943D01*
X132602Y52158D01*
X154602Y74157D01*
X156469Y74931D01*
X181176Y74931D01*
X181184Y74932D01*
X181193Y74931D01*
X181385Y74952D01*
X181576Y74971D01*
X181585Y74973D01*
X181594Y74974D01*
X181776Y75032D01*
X181961Y75089D01*
X181969Y75093D01*
X181977Y75096D01*
X182146Y75189D01*
X182315Y75281D01*
X182322Y75286D01*
X182330Y75291D01*
X182478Y75416D01*
X182624Y75538D01*
X182630Y75545D01*
X182637Y75551D01*
X182757Y75703D01*
X182877Y75852D01*
X182881Y75860D01*
X182886Y75867D01*
X182974Y76039D01*
X183062Y76209D01*
X183065Y76218D01*
X183069Y76226D01*
X183121Y76412D01*
X183174Y76596D01*
X183174Y76605D01*
X183177Y76614D01*
X183191Y76806D01*
X183206Y76998D01*
X183205Y77006D01*
X183206Y77015D01*
X183182Y77208D01*
X183160Y77397D01*
X183157Y77406D01*
X183156Y77415D01*
X183094Y77598D01*
X183035Y77780D01*
X183030Y77788D01*
X183027Y77796D01*
X182932Y77962D01*
X182837Y78131D01*
X182831Y78138D01*
X182827Y78145D01*
X182612Y78398D01*
X180947Y80063D01*
X179323Y83984D01*
X179323Y88228D01*
X180947Y92149D01*
X183949Y95151D01*
X187017Y96421D01*
X187021Y96423D01*
X187025Y96425D01*
X187198Y96518D01*
X187372Y96612D01*
X187375Y96614D01*
X187379Y96617D01*
X187528Y96741D01*
X187682Y96868D01*
X187685Y96871D01*
X187688Y96874D01*
X187811Y97027D01*
X187936Y97181D01*
X187938Y97185D01*
X187941Y97188D01*
X188031Y97363D01*
X188123Y97537D01*
X188124Y97541D01*
X188126Y97545D01*
X188181Y97735D01*
X188236Y97924D01*
X188236Y97928D01*
X188238Y97932D01*
X188254Y98130D01*
X188271Y98325D01*
X188270Y98329D01*
X188270Y98334D01*
X188247Y98531D01*
X188225Y98725D01*
X188224Y98729D01*
X188224Y98733D01*
X188162Y98922D01*
X188102Y99108D01*
X188100Y99112D01*
X188099Y99116D01*
X188001Y99289D01*
X187906Y99460D01*
X187903Y99463D01*
X187901Y99467D01*
X187772Y99616D01*
X187644Y99765D01*
X187641Y99768D01*
X187638Y99772D01*
X187485Y99890D01*
X187327Y100014D01*
X187323Y100016D01*
X187320Y100018D01*
X187145Y100105D01*
X186967Y100194D01*
X186963Y100196D01*
X186959Y100198D01*
X186766Y100249D01*
X186579Y100301D01*
X186575Y100301D01*
X186570Y100302D01*
X186240Y100329D01*
X154838Y100329D01*
X154811Y100327D01*
X154785Y100329D01*
X154611Y100307D01*
X154437Y100289D01*
X154412Y100282D01*
X154385Y100278D01*
X154219Y100223D01*
X154052Y100171D01*
X154029Y100158D01*
X154003Y100150D01*
X153852Y100063D01*
X153698Y99979D01*
X153678Y99962D01*
X153655Y99949D01*
X153402Y99734D01*
X148971Y95304D01*
X148960Y95290D01*
X148946Y95278D01*
X148832Y95134D01*
X148716Y94992D01*
X148707Y94976D01*
X148696Y94962D01*
X148613Y94798D01*
X148527Y94636D01*
X148522Y94619D01*
X148514Y94603D01*
X148464Y94425D01*
X148412Y94251D01*
X148411Y94233D01*
X148406Y94216D01*
X148393Y94032D01*
X148376Y93850D01*
X148378Y93832D01*
X148377Y93814D01*
X148400Y93632D01*
X148419Y93449D01*
X148425Y93432D01*
X148427Y93415D01*
X148485Y93241D01*
X148541Y93065D01*
X148550Y93050D01*
X148555Y93033D01*
X148647Y92873D01*
X148736Y92713D01*
X148747Y92700D01*
X148756Y92684D01*
X148971Y92431D01*
X149253Y92149D01*
X150877Y88228D01*
X150877Y83984D01*
X149253Y80063D01*
X146251Y77061D01*
X142330Y75437D01*
X122846Y75437D01*
X118925Y77061D01*
X115923Y80063D01*
X114299Y83984D01*
X114299Y88228D01*
X115923Y92149D01*
X118925Y95151D01*
X122846Y96775D01*
X135230Y96775D01*
X135257Y96777D01*
X135283Y96775D01*
X135457Y96797D01*
X135631Y96815D01*
X135656Y96822D01*
X135683Y96826D01*
X135849Y96881D01*
X136016Y96933D01*
X136039Y96946D01*
X136065Y96954D01*
X136216Y97041D01*
X136370Y97125D01*
X136390Y97142D01*
X136413Y97155D01*
X136666Y97370D01*
X145998Y106701D01*
X146018Y106726D01*
X146042Y106746D01*
X146146Y106881D01*
X146253Y107013D01*
X146268Y107041D01*
X146287Y107065D01*
X146439Y107361D01*
X146823Y108288D01*
X148306Y109771D01*
X148399Y109821D01*
X148403Y109824D01*
X148407Y109827D01*
X148557Y109952D01*
X148710Y110078D01*
X148713Y110081D01*
X148716Y110084D01*
X148839Y110237D01*
X148964Y110390D01*
X148966Y110394D01*
X148969Y110398D01*
X149059Y110571D01*
X149151Y110747D01*
X149152Y110751D01*
X149154Y110755D01*
X149208Y110943D01*
X149264Y111133D01*
X149264Y111138D01*
X149266Y111142D01*
X149281Y111337D01*
X149299Y111534D01*
X149298Y111539D01*
X149298Y111544D01*
X149276Y111736D01*
X149253Y111934D01*
X149252Y111939D01*
X149251Y111943D01*
X149190Y112131D01*
X149130Y112318D01*
X149128Y112322D01*
X149127Y112326D01*
X149029Y112499D01*
X148934Y112669D01*
X148931Y112673D01*
X148929Y112677D01*
X148800Y112826D01*
X148672Y112975D01*
X148669Y112978D01*
X148666Y112982D01*
X148510Y113103D01*
X148355Y113223D01*
X148351Y113225D01*
X148347Y113228D01*
X148171Y113316D01*
X147996Y113404D01*
X147991Y113405D01*
X147987Y113408D01*
X147795Y113459D01*
X147607Y113511D01*
X147603Y113511D01*
X147598Y113512D01*
X147267Y113539D01*
X12192Y113539D01*
X12174Y113537D01*
X12156Y113539D01*
X11974Y113518D01*
X11791Y113499D01*
X11774Y113494D01*
X11757Y113492D01*
X11582Y113435D01*
X11406Y113381D01*
X11391Y113373D01*
X11374Y113367D01*
X11214Y113277D01*
X11052Y113189D01*
X11039Y113178D01*
X11023Y113169D01*
X10884Y113049D01*
X10743Y112932D01*
X10732Y112918D01*
X10718Y112906D01*
X10606Y112761D01*
X10491Y112618D01*
X10483Y112602D01*
X10472Y112588D01*
X10390Y112423D01*
X10305Y112261D01*
X10300Y112244D01*
X10292Y112228D01*
X10245Y112049D01*
X10194Y111874D01*
X10192Y111856D01*
X10188Y111839D01*
X10161Y111508D01*
X10161Y12192D01*
X10163Y12174D01*
X10161Y12156D01*
X10182Y11974D01*
X10201Y11791D01*
X10206Y11774D01*
X10208Y11757D01*
X10265Y11582D01*
X10319Y11406D01*
X10327Y11391D01*
X10333Y11374D01*
X10423Y11214D01*
X10511Y11052D01*
X10522Y11039D01*
X10531Y11023D01*
X10651Y10884D01*
X10768Y10743D01*
X10782Y10732D01*
X10794Y10718D01*
X10939Y10606D01*
X11082Y10491D01*
X11098Y10483D01*
X11112Y10472D01*
X11277Y10390D01*
X11439Y10305D01*
X11456Y10300D01*
X11472Y10292D01*
X11651Y10245D01*
X11826Y10194D01*
X11844Y10192D01*
X11861Y10188D01*
X12192Y10161D01*
X368608Y10161D01*
X368626Y10163D01*
G37*
%LPC*%
G36*
X187870Y30225D02*
X187870Y30225D01*
X183949Y31849D01*
X180947Y34851D01*
X179323Y38772D01*
X179323Y43016D01*
X180947Y46937D01*
X183949Y49939D01*
X187870Y51563D01*
X207354Y51563D01*
X211275Y49939D01*
X214277Y46937D01*
X215901Y43016D01*
X215901Y38772D01*
X214277Y34851D01*
X211275Y31849D01*
X207354Y30225D01*
X187870Y30225D01*
G37*
%LPD*%
G36*
X154561Y27943D02*
X154561Y27943D01*
X154587Y27941D01*
X154761Y27963D01*
X154935Y27981D01*
X154960Y27988D01*
X154987Y27992D01*
X155153Y28047D01*
X155320Y28099D01*
X155343Y28112D01*
X155369Y28120D01*
X155520Y28207D01*
X155674Y28291D01*
X155694Y28308D01*
X155717Y28321D01*
X155970Y28536D01*
X160694Y33260D01*
X160711Y33280D01*
X160732Y33298D01*
X160839Y33436D01*
X160949Y33571D01*
X160962Y33595D01*
X160978Y33616D01*
X161056Y33773D01*
X161138Y33927D01*
X161146Y33952D01*
X161158Y33976D01*
X161203Y34146D01*
X161253Y34313D01*
X161255Y34339D01*
X161262Y34365D01*
X161289Y34696D01*
X161289Y54351D01*
X162063Y56218D01*
X167146Y61302D01*
X167152Y61309D01*
X167159Y61314D01*
X167279Y61464D01*
X167402Y61613D01*
X167406Y61621D01*
X167411Y61628D01*
X167500Y61798D01*
X167590Y61969D01*
X167593Y61978D01*
X167597Y61985D01*
X167650Y62170D01*
X167705Y62355D01*
X167706Y62364D01*
X167708Y62372D01*
X167724Y62564D01*
X167741Y62756D01*
X167740Y62765D01*
X167741Y62774D01*
X167719Y62963D01*
X167698Y63156D01*
X167695Y63165D01*
X167694Y63173D01*
X167635Y63355D01*
X167576Y63540D01*
X167572Y63548D01*
X167569Y63556D01*
X167474Y63725D01*
X167382Y63892D01*
X167376Y63899D01*
X167371Y63907D01*
X167245Y64053D01*
X167121Y64199D01*
X167114Y64205D01*
X167108Y64212D01*
X166957Y64329D01*
X166805Y64449D01*
X166797Y64453D01*
X166790Y64458D01*
X166618Y64544D01*
X166446Y64631D01*
X166438Y64634D01*
X166430Y64638D01*
X166243Y64688D01*
X166058Y64739D01*
X166050Y64740D01*
X166041Y64742D01*
X165710Y64769D01*
X160426Y64769D01*
X160399Y64767D01*
X160373Y64769D01*
X160199Y64747D01*
X160025Y64729D01*
X160000Y64722D01*
X159973Y64718D01*
X159807Y64663D01*
X159640Y64611D01*
X159617Y64598D01*
X159591Y64590D01*
X159440Y64503D01*
X159286Y64419D01*
X159266Y64402D01*
X159243Y64389D01*
X158990Y64174D01*
X146939Y52124D01*
X146927Y52110D01*
X146914Y52098D01*
X146800Y51955D01*
X146684Y51812D01*
X146675Y51796D01*
X146664Y51782D01*
X146581Y51618D01*
X146495Y51456D01*
X146490Y51439D01*
X146482Y51423D01*
X146433Y51246D01*
X146380Y51070D01*
X146379Y51053D01*
X146374Y51036D01*
X146361Y50852D01*
X146344Y50670D01*
X146346Y50652D01*
X146345Y50634D01*
X146368Y50452D01*
X146387Y50269D01*
X146393Y50252D01*
X146395Y50235D01*
X146453Y50061D01*
X146509Y49885D01*
X146518Y49870D01*
X146523Y49853D01*
X146615Y49694D01*
X146704Y49533D01*
X146715Y49519D01*
X146724Y49504D01*
X146939Y49251D01*
X149253Y46937D01*
X150877Y43016D01*
X150877Y38772D01*
X149253Y34851D01*
X146251Y31850D01*
X146249Y31849D01*
X146245Y31847D01*
X146241Y31845D01*
X146068Y31751D01*
X145894Y31658D01*
X145891Y31656D01*
X145887Y31653D01*
X145736Y31528D01*
X145584Y31402D01*
X145581Y31399D01*
X145578Y31396D01*
X145455Y31243D01*
X145330Y31089D01*
X145328Y31085D01*
X145325Y31082D01*
X145235Y30908D01*
X145143Y30733D01*
X145142Y30729D01*
X145140Y30725D01*
X145085Y30534D01*
X145030Y30347D01*
X145030Y30342D01*
X145028Y30338D01*
X145012Y30138D01*
X144995Y29945D01*
X144996Y29941D01*
X144996Y29936D01*
X145019Y29740D01*
X145041Y29545D01*
X145042Y29541D01*
X145042Y29537D01*
X145104Y29348D01*
X145164Y29162D01*
X145166Y29158D01*
X145167Y29154D01*
X145265Y28980D01*
X145360Y28811D01*
X145363Y28807D01*
X145365Y28803D01*
X145494Y28654D01*
X145622Y28505D01*
X145625Y28502D01*
X145628Y28498D01*
X145783Y28379D01*
X145939Y28256D01*
X145943Y28254D01*
X145946Y28252D01*
X146123Y28164D01*
X146299Y28076D01*
X146303Y28074D01*
X146307Y28072D01*
X146500Y28020D01*
X146687Y27969D01*
X146691Y27969D01*
X146696Y27968D01*
X147027Y27941D01*
X154534Y27941D01*
X154561Y27943D01*
G37*
G36*
X217976Y86260D02*
X217976Y86260D01*
X217985Y86259D01*
X218178Y86284D01*
X218367Y86306D01*
X218376Y86309D01*
X218385Y86310D01*
X218567Y86371D01*
X218750Y86431D01*
X218758Y86435D01*
X218766Y86438D01*
X218933Y86534D01*
X219101Y86629D01*
X219108Y86634D01*
X219115Y86639D01*
X219368Y86854D01*
X223096Y90581D01*
X223107Y90595D01*
X223120Y90606D01*
X223234Y90750D01*
X223351Y90892D01*
X223359Y90908D01*
X223370Y90922D01*
X223454Y91087D01*
X223539Y91248D01*
X223544Y91265D01*
X223552Y91281D01*
X223602Y91459D01*
X223654Y91634D01*
X223656Y91652D01*
X223660Y91669D01*
X223674Y91852D01*
X223690Y92035D01*
X223689Y92053D01*
X223690Y92070D01*
X223667Y92252D01*
X223647Y92435D01*
X223642Y92452D01*
X223639Y92470D01*
X223581Y92644D01*
X223526Y92819D01*
X223517Y92835D01*
X223511Y92852D01*
X223419Y93011D01*
X223331Y93171D01*
X223319Y93185D01*
X223310Y93200D01*
X223096Y93453D01*
X218947Y97602D01*
X218947Y98298D01*
X218945Y98316D01*
X218947Y98334D01*
X218926Y98516D01*
X218907Y98699D01*
X218902Y98716D01*
X218900Y98733D01*
X218843Y98908D01*
X218789Y99084D01*
X218781Y99099D01*
X218775Y99116D01*
X218685Y99276D01*
X218597Y99438D01*
X218586Y99451D01*
X218577Y99467D01*
X218457Y99606D01*
X218340Y99747D01*
X218326Y99758D01*
X218314Y99772D01*
X218169Y99884D01*
X218026Y99999D01*
X218010Y100007D01*
X217996Y100018D01*
X217831Y100100D01*
X217669Y100185D01*
X217652Y100190D01*
X217636Y100198D01*
X217457Y100245D01*
X217282Y100296D01*
X217264Y100298D01*
X217247Y100302D01*
X216916Y100329D01*
X208984Y100329D01*
X208980Y100329D01*
X208976Y100329D01*
X208782Y100309D01*
X208584Y100289D01*
X208580Y100288D01*
X208575Y100288D01*
X208389Y100230D01*
X208199Y100171D01*
X208195Y100169D01*
X208191Y100168D01*
X208019Y100074D01*
X207845Y99979D01*
X207841Y99977D01*
X207838Y99974D01*
X207686Y99847D01*
X207536Y99722D01*
X207533Y99718D01*
X207529Y99715D01*
X207406Y99561D01*
X207283Y99408D01*
X207281Y99404D01*
X207278Y99401D01*
X207188Y99225D01*
X207098Y99051D01*
X207097Y99046D01*
X207095Y99042D01*
X207041Y98853D01*
X206986Y98664D01*
X206986Y98659D01*
X206985Y98655D01*
X206970Y98460D01*
X206954Y98262D01*
X206954Y98258D01*
X206954Y98254D01*
X206977Y98060D01*
X207000Y97863D01*
X207002Y97858D01*
X207002Y97854D01*
X207063Y97670D01*
X207125Y97480D01*
X207128Y97476D01*
X207129Y97472D01*
X207226Y97302D01*
X207323Y97129D01*
X207326Y97126D01*
X207328Y97122D01*
X207460Y96971D01*
X207586Y96825D01*
X207590Y96822D01*
X207593Y96818D01*
X207749Y96698D01*
X207904Y96578D01*
X207908Y96576D01*
X207912Y96573D01*
X208207Y96421D01*
X211275Y95151D01*
X214277Y92149D01*
X215907Y88212D01*
X215922Y88079D01*
X215941Y87889D01*
X215943Y87881D01*
X215944Y87872D01*
X216003Y87687D01*
X216059Y87504D01*
X216063Y87496D01*
X216066Y87488D01*
X216159Y87320D01*
X216251Y87150D01*
X216256Y87143D01*
X216261Y87136D01*
X216385Y86989D01*
X216508Y86841D01*
X216515Y86835D01*
X216521Y86829D01*
X216673Y86709D01*
X216822Y86589D01*
X216830Y86585D01*
X216837Y86579D01*
X217010Y86491D01*
X217179Y86403D01*
X217188Y86401D01*
X217196Y86397D01*
X217382Y86345D01*
X217566Y86292D01*
X217575Y86291D01*
X217584Y86289D01*
X217777Y86275D01*
X217968Y86259D01*
X217976Y86260D01*
G37*
D10*
X76250Y43700D02*
X50750Y43700D01*
X50750Y83300D02*
X76250Y83300D01*
D11*
X332740Y74930D03*
X332740Y49530D03*
D12*
X279400Y76200D03*
X260350Y63500D03*
X279400Y50800D03*
D11*
X228600Y101600D03*
X228600Y25400D03*
D13*
X205232Y40894D02*
X189992Y40894D01*
X189992Y86106D02*
X205232Y86106D01*
X140208Y40894D02*
X124968Y40894D01*
X124968Y86106D02*
X140208Y86106D01*
D14*
X229870Y76200D02*
X279400Y76200D01*
X229870Y76200D02*
X214630Y60960D01*
X84340Y22860D02*
X63500Y43700D01*
X84340Y22860D02*
X157480Y22860D01*
X166370Y31750D01*
X166370Y53340D01*
X173990Y60960D01*
X214630Y60960D01*
X228600Y31750D02*
X260350Y63500D01*
X228600Y31750D02*
X228600Y25400D01*
X280670Y49530D02*
X332740Y49530D01*
X280670Y49530D02*
X279400Y50800D01*
X90182Y83300D02*
X63500Y83300D01*
X90182Y83300D02*
X132588Y40894D01*
X320040Y87630D02*
X332740Y74930D01*
X320040Y87630D02*
X227330Y87630D01*
X209550Y69850D01*
X157480Y69850D01*
X132588Y44958D01*
X132588Y40894D01*
X132588Y86106D02*
X151130Y104648D01*
X151130Y105410D01*
X224790Y105410D01*
X228600Y101600D01*
M02*
